# xmcd
#
# Track frame offsets:
# 150
# 10090
# 18911
# 29218
# 44609
# 51732
# 78465
# 79431
#
# Disc length: 1079 seconds
#
#
# Revision: 0
# Processed by: cddbd v1.5.1PL2 Copyright (c) Steve Scherf et al.
# Submitted via: FreeRIP 2.92 
#
DISCID=6a043508
DTITLE=God's America - s-t
DYEAR=2006
DGENRE=Salsa
TTITLE0=intro
TTITLE1=Cante Jondo
TTITLE2=the Fermentation Celebration
TTITLE3=Be the Griot
TTITLE4=Invisible-Invincible
TTITLE5=In the Past, 1998 Was the Future
TTITLE6=Boosh
TTITLE7=untitled
EXTD=
EXTT0=
EXTT1=
EXTT2=
EXTT3=
EXTT4=
EXTT5=
EXTT6=
EXTT7=
PLAYORDER=
